<svg width="90" height="80" viewBox="0 0 90 80" fill="none" xmlns="http://www.w3.org/2000/svg">
<g id="icon-park-outline:woman">
<rect width="90" height="80" fill="#CFEDFE"/>
<g id="Group">
<path id="Vector" d="M50.4465 40.8083C52.0982 38.9533 53.408 36.749 54.3007 34.3221C55.1935 31.8952 55.6515 29.2935 55.6486 26.6666C55.6486 15.6216 47.6968 6.66663 37.8891 6.66663C28.0815 6.66663 20.1297 15.6216 20.1297 26.6666C20.1297 32.19 22.1173 37.19 25.3317 40.8083" stroke="#0F0D6C" stroke-width="5" stroke-linecap="round"/>
<path id="Vector_2" d="M11.25 73.3333L12.73 65L29.0094 51.6666L37.8892 61.6666L46.7689 51.6666L63.0483 65L64.5283 73.3333" stroke="#0F0D6C" stroke-width="5" stroke-linecap="round" stroke-linejoin="round"/>
<path id="Vector_3" d="M21.5993 35.0116C21.6185 28.1616 22.6086 23.1566 24.5696 20C27.5117 15.265 29.5822 15.6133 31.0888 16.35C32.5968 17.0883 33.4833 21.9066 36.0007 23.2966C38.5166 24.685 44.9604 24.8566 47.167 26.5283C49.3721 28.1983 54.4187 31.3066 53.1608 36.6133" stroke="#0F0D6C" stroke-width="5"/>
</g>
</g>
</svg>
