<svg width="500" height="500" viewBox="0 0 500 500" fill="none" xmlns="http://www.w3.org/2000/svg">
<g id="online-doctor/rafiki">
<g id="background-complete">
<path id="Vector" d="M500 439.392H0V439.728H500V439.392Z" fill="#EBEBEB"/>
<path id="Vector_2" d="M449.9 460.986H416.78V461.322H449.9V460.986Z" fill="#EBEBEB"/>
<path id="Vector_3" d="M331.22 464.636H322.53V464.972H331.22V464.636Z" fill="#EBEBEB"/>
<path id="Vector_4" d="M415.78 448.531H368.11V448.867H415.78V448.531Z" fill="#EBEBEB"/>
<path id="Vector_5" d="M76.14 450.787H52.46V451.122H76.14V450.787Z" fill="#EBEBEB"/>
<path id="Vector_6" d="M110.89 450.787H85.04V451.122H110.89V450.787Z" fill="#EBEBEB"/>
<path id="Vector_7" d="M196.11 456.45H131.47V456.785H196.11V456.45Z" fill="#EBEBEB"/>
<path id="Vector_8" d="M237 379.536H43.9101C42.3974 379.533 40.9476 378.724 39.879 377.287C38.8103 375.85 38.2101 373.903 38.2101 371.873V7.59609C38.2233 5.57766 38.8293 3.64771 39.8965 2.22544C40.9638 0.80317 42.4061 0.00345768 43.9101 0H237C238.514 0 239.967 0.80737 241.038 2.2445C242.108 3.68163 242.71 5.63079 242.71 7.66319V371.873C242.71 373.905 242.108 375.855 241.038 377.292C239.967 378.729 238.514 379.536 237 379.536ZM43.9101 0.268414C42.4637 0.271969 41.0775 1.04556 40.0557 2.41938C39.034 3.7932 38.4601 5.65499 38.4601 7.59609V371.873C38.4601 373.814 39.034 375.676 40.0557 377.05C41.0775 378.423 42.4637 379.197 43.9101 379.201H237C238.447 379.197 239.835 378.424 240.858 377.051C241.881 375.677 242.457 373.815 242.46 371.873V7.59609C242.457 5.65376 241.881 3.792 240.858 2.41856C239.835 1.04512 238.447 0.271962 237 0.268414H43.9101Z" fill="#EBEBEB"/>
<path id="Vector_9" d="M453.31 379.536H260.21C258.696 379.533 257.246 378.724 256.175 377.288C255.105 375.851 254.503 373.904 254.5 371.873V7.59609C254.516 5.57644 255.124 3.6465 256.193 2.2246C257.262 0.802701 258.705 0.00341997 260.21 0H453.31C454.812 0.00698478 456.252 0.808258 457.317 2.23015C458.382 3.65204 458.987 5.57998 459 7.59609V371.873C459 373.901 458.401 375.846 457.335 377.282C456.268 378.719 454.821 379.529 453.31 379.536ZM260.21 0.268414C258.763 0.271962 257.376 1.04512 256.352 2.41856C255.329 3.792 254.753 5.65376 254.75 7.59609V371.873C254.753 373.815 255.329 375.677 256.352 377.051C257.376 378.424 258.763 379.197 260.21 379.201H453.31C454.757 379.197 456.145 378.424 457.168 377.051C458.191 375.677 458.767 373.815 458.77 371.873V7.59609C458.767 5.65376 458.191 3.792 457.168 2.41856C456.145 1.04512 454.757 0.271962 453.31 0.268414H260.21Z" fill="#EBEBEB"/>
<path id="Vector_10" d="M441.41 34.8938H283.44V439.392H441.41V34.8938Z" fill="#EBEBEB"/>
<path id="Vector_11" d="M429.66 48.0862H295.19V439.392H429.66V48.0862Z" fill="#F5F5F5"/>
<path id="Vector_12" d="M381.34 80.5374H343.53V94.5619H381.34V80.5374Z" fill="white"/>
<path id="Vector_13" d="M398.37 219.857H418.88C419.729 219.857 420.543 220.31 421.143 221.115C421.743 221.921 422.08 223.013 422.08 224.152C422.08 225.291 421.743 226.383 421.143 227.189C420.543 227.994 419.729 228.447 418.88 228.447H398.37C397.521 228.447 396.707 227.994 396.107 227.189C395.507 226.383 395.17 225.291 395.17 224.152C395.17 223.013 395.507 221.921 396.107 221.115C396.707 220.31 397.521 219.857 398.37 219.857Z" fill="white"/>
<path id="Vector_14" d="M175.44 77.9336H70.3799V191.566H175.44V77.9336Z" fill="#EBEBEB"/>
<path id="Vector_15" d="M169.79 183.997V85.5029L76.01 85.5029V183.997H169.79Z" fill="#FAFAFA"/>
<path id="Vector_16" d="M158.86 136.045V131.334H86.9499V136.045H158.86Z" fill="#E0E0E0"/>
<path id="Vector_17" d="M158.86 146.769V142.058H86.9499V146.769H158.86Z" fill="#E0E0E0"/>
<path id="Vector_18" d="M158.86 157.478V152.767H86.9499V157.478H158.86Z" fill="#E0E0E0"/>
<path id="Vector_19" d="M140.83 168.201V163.49H104.98V168.201H140.83Z" fill="#E0E0E0"/>
<path id="Vector_20" d="M87.0001 85.5028C87.0001 87.4371 86.7151 89.3523 86.1615 91.1381C85.6078 92.924 84.7964 94.5452 83.7741 95.9086C82.7517 97.2719 81.5385 98.3505 80.2043 99.0821C78.8702 99.8137 77.4413 100.184 76.0001 100.172C74.0116 100.178 72.0601 99.4492 70.3601 98.0646V77.9336H85.3601C86.4111 80.2086 86.9783 82.8262 87.0001 85.5028Z" fill="#EBEBEB"/>
<path id="Vector_21" d="M175.44 77.9336V98.0646C173.349 99.7523 170.898 100.453 168.477 100.054C166.055 99.6562 163.802 98.1822 162.077 95.867C160.352 93.5518 159.254 90.5286 158.957 87.2788C158.66 84.0289 159.182 80.7393 160.44 77.9336H175.44Z" fill="#EBEBEB"/>
<path id="Vector_22" d="M87.0001 184.011C87.0036 186.673 86.4641 189.286 85.4401 191.567H70.4401V171.436C72.0992 170.102 73.9919 169.383 75.9255 169.351C77.8591 169.319 79.7645 169.976 81.4475 171.254C83.1306 172.532 84.5311 174.386 85.5065 176.627C86.4819 178.868 86.9972 181.415 87.0001 184.011Z" fill="#EBEBEB"/>
<path id="Vector_23" d="M175.44 171.422V191.553H160.44C159.408 189.277 158.865 186.662 158.87 183.997C158.872 181.398 159.388 178.847 160.364 176.603C161.34 174.359 162.743 172.502 164.428 171.222C166.114 169.943 168.022 169.286 169.958 169.319C171.894 169.351 173.789 170.072 175.45 171.409L175.44 171.422Z" fill="#EBEBEB"/>
<path id="Vector_24" d="M132.099 111.503C132.922 104.692 129.476 98.2737 124.401 97.1681C119.325 96.0624 114.543 100.688 113.719 107.499C112.895 114.311 116.342 120.729 121.417 121.834C126.493 122.94 131.275 118.315 132.099 111.503Z" fill="#E0E0E0"/>
<path id="Vector_25" d="M260.34 278.009H52.46V288.047H260.34V278.009Z" fill="#EBEBEB"/>
<path id="Vector_26" d="M258.54 288.047H191V439.392H258.54V288.047Z" fill="#F5F5F5"/>
<path id="Vector_27" d="M122.57 288.047H55.0299V439.392H122.57V288.047Z" fill="#F5F5F5"/>
<path id="Vector_28" d="M57.3399 288.047H55.0299V439.392H57.3399V288.047Z" fill="#EBEBEB"/>
<path id="Vector_29" d="M193.31 288.047H191V439.392H193.31V288.047Z" fill="#EBEBEB"/>
<path id="Vector_30" d="M90.5001 253.812H78.0801L79.0801 278.009H89.5001L90.5001 253.812Z" fill="#F0F0F0"/>
<path id="Vector_31" d="M198.33 267.514H133.44V278.009H198.33V267.514Z" fill="#F0F0F0"/>
<path id="Vector_32" d="M198.34 268.749H168.42V276.788H198.34V268.749Z" fill="#FAFAFA"/>
</g>
<g id="Shadow">
<path id="path" d="M250 500C357.082 500 443.89 493.198 443.89 484.808C443.89 476.417 357.082 469.616 250 469.616C142.917 469.616 56.1099 476.417 56.1099 484.808C56.1099 493.198 142.917 500 250 500Z" fill="#F5F5F5"/>
</g>
<g id="cross-icon">
<path id="Vector_33" d="M340.71 390.837C358.206 390.837 372.39 371.802 372.39 348.32C372.39 324.839 358.206 305.804 340.71 305.804C323.213 305.804 309.03 324.839 309.03 348.32C309.03 371.802 323.213 390.837 340.71 390.837Z" fill="white"/>
<path id="Vector_34" d="M340.71 391.36C334.367 391.363 328.165 388.841 322.89 384.113C317.615 379.385 313.503 372.664 311.074 364.8C308.645 356.936 308.009 348.281 309.245 339.931C310.481 331.582 313.535 323.911 318.02 317.891C322.504 311.87 328.219 307.77 334.44 306.108C340.661 304.446 347.11 305.298 352.97 308.555C358.831 311.812 363.84 317.329 367.365 324.407C370.889 331.485 372.77 339.807 372.77 348.32C372.762 359.729 369.382 370.668 363.372 378.737C357.361 386.806 349.211 391.346 340.71 391.36ZM340.71 306.34C334.521 306.34 328.471 308.803 323.325 313.418C318.179 318.033 314.169 324.592 311.801 332.266C309.433 339.94 308.814 348.384 310.022 356.531C311.23 364.677 314.211 372.159 318.588 378.032C322.965 383.904 328.542 387.902 334.612 389.521C340.682 391.14 346.974 390.307 352.691 387.126C358.409 383.946 363.295 378.561 366.732 371.654C370.169 364.746 372.002 356.626 372 348.32C371.992 337.187 368.693 326.513 362.826 318.643C356.959 310.772 349.005 306.347 340.71 306.34Z" fill="#0340C9"/>
<path id="Vector_35" d="M345.81 324.217H335.61V372.424H345.81V324.217Z" fill="#0340C9"/>
<path id="Vector_36" d="M358.67 355.178V341.489H322.75V355.178H358.67Z" fill="#0340C9"/>
</g>
<g id="pulse-icon">
<path id="Vector_37" d="M126.11 26.9354L125.43 25.9557C130.059 20.0828 135.933 16.2843 142.24 15.085L142.38 16.427C136.276 17.5823 130.591 21.2544 126.11 26.9354Z" fill="#0340C9"/>
<path id="Vector_38" d="M118.71 41.6041L117.78 41.1209C118.79 37.702 120.135 34.4794 121.78 31.5386L122.58 32.3438C120.994 35.1898 119.692 38.3032 118.71 41.6041Z" fill="#0340C9"/>
<path id="Vector_39" d="M146.61 93.0188C161.765 93.0188 174.05 76.5311 174.05 56.1925C174.05 35.8539 161.765 19.3662 146.61 19.3662C131.455 19.3662 119.17 35.8539 119.17 56.1925C119.17 76.5311 131.455 93.0188 146.61 93.0188Z" fill="#0340C9"/>
<path id="Vector_40" d="M163 39.6046C161.943 38.1321 160.678 36.9573 159.279 36.1487C157.88 35.3401 156.375 34.9139 154.852 34.8952C153.328 34.8764 151.818 35.2655 150.408 36.0395C148.998 36.8136 147.717 37.9571 146.64 39.4032C145.564 37.9575 144.284 36.8142 142.875 36.0403C141.466 35.2665 139.956 34.8775 138.434 34.8963C136.911 34.915 135.407 35.3411 134.008 36.1495C132.61 36.958 131.346 38.1325 130.29 39.6046C128.221 42.6087 127.106 46.5775 127.182 50.6675C127.259 54.7575 128.521 58.6461 130.7 61.5071L143.7 78.9539C144.09 79.4774 144.553 79.8926 145.063 80.1759C145.572 80.4592 146.118 80.6051 146.67 80.6051C147.222 80.6051 147.768 80.4592 148.277 80.1759C148.787 79.8926 149.25 79.4774 149.64 78.9539L162.64 61.5071C164.812 58.6373 166.065 54.7437 166.132 50.6539C166.2 46.564 165.076 42.6001 163 39.6046Z" fill="white"/>
<path id="Vector_41" d="M146.61 72.2835C146.408 72.2743 146.214 72.1834 146.051 72.023C145.889 71.8625 145.766 71.6399 145.7 71.3843L139.91 48.6632L137.49 58.165C137.421 58.429 137.293 58.6576 137.122 58.8189C136.952 58.9801 136.748 59.0658 136.54 59.0642H126.85C126.585 59.0642 126.33 58.9228 126.143 58.6711C125.955 58.4194 125.85 58.078 125.85 57.7221C125.85 57.3662 125.955 57.0248 126.143 56.7731C126.33 56.5214 126.585 56.38 126.85 56.38H135.85L138.99 44.0733C139.058 43.8096 139.185 43.5809 139.355 43.419C139.524 43.2572 139.727 43.1702 139.935 43.1702C140.143 43.1702 140.346 43.2572 140.515 43.419C140.684 43.5809 140.812 43.8096 140.88 44.0733L146.77 67.1971L152.49 49.1194C152.562 48.889 152.681 48.6903 152.833 48.5456C152.985 48.401 153.164 48.3162 153.35 48.3008C153.537 48.2864 153.724 48.3429 153.888 48.4639C154.053 48.5849 154.188 48.7656 154.28 48.9852L157.3 56.3666H166.41C166.675 56.3666 166.929 56.508 167.117 56.7597C167.305 57.0114 167.41 57.3527 167.41 57.7087C167.41 58.0646 167.305 58.406 167.117 58.6577C166.929 58.9093 166.675 59.0507 166.41 59.0507H156.72C156.541 59.0527 156.365 58.9903 156.21 58.8699C156.055 58.7495 155.928 58.5756 155.84 58.3663L153.47 52.6759L147.53 71.4648C147.453 71.7074 147.325 71.9144 147.162 72.06C146.998 72.2056 146.806 72.2833 146.61 72.2835Z" fill="#0340C9"/>
</g>
<g id="Character">
<path id="Vector_42" d="M298.86 437.782H194.49C192.789 437.807 191.103 437.357 189.539 436.461C187.975 435.565 186.567 434.241 185.405 432.575C184.242 430.909 183.351 428.937 182.787 426.783C182.223 424.63 181.999 422.342 182.13 420.066L199 84.55C199.295 79.7584 200.906 75.2849 203.521 71.9986C206.136 68.7123 209.568 66.8479 213.15 66.7677H317.54C319.245 66.7415 320.936 67.1931 322.503 68.0935C324.071 68.9939 325.482 70.3233 326.645 71.9969C327.808 73.6704 328.699 75.6512 329.259 77.8127C329.819 79.9743 330.038 82.2689 329.9 84.55L313 420.066C312.696 424.845 311.081 429.302 308.469 432.575C305.857 435.847 302.433 437.703 298.86 437.782Z" fill="#263238"/>
<path id="Vector_43" d="M322 203.403H319.37C318.894 203.411 318.422 203.285 317.984 203.034C317.546 202.783 317.152 202.411 316.827 201.944C316.502 201.477 316.254 200.923 316.098 200.319C315.942 199.716 315.881 199.075 315.92 198.438L319.15 134.3C319.225 132.959 319.673 131.705 320.404 130.785C321.136 129.865 322.098 129.348 323.1 129.335H325.73C326.206 129.327 326.678 129.453 327.116 129.704C327.554 129.955 327.948 130.327 328.273 130.794C328.598 131.262 328.846 131.815 329.002 132.419C329.159 133.023 329.219 133.663 329.18 134.3L325.95 198.438C325.875 199.779 325.427 201.034 324.696 201.953C323.964 202.873 323.002 203.39 322 203.403Z" fill="#263238"/>
<path id="Vector_44" d="M197.48 160.618H194.86C194.472 160.625 194.088 160.524 193.731 160.321C193.374 160.118 193.052 159.818 192.786 159.439C192.52 159.061 192.315 158.612 192.185 158.122C192.055 157.632 192.002 157.111 192.03 156.592L193.2 133.428C193.274 132.341 193.644 131.328 194.24 130.585C194.837 129.842 195.616 129.421 196.43 129.402H199.06C199.446 129.399 199.829 129.503 200.184 129.707C200.539 129.912 200.859 130.212 201.124 130.59C201.388 130.968 201.592 131.415 201.722 131.903C201.852 132.392 201.906 132.911 201.88 133.428L200.71 156.592C200.638 157.681 200.268 158.695 199.672 159.439C199.075 160.182 198.294 160.603 197.48 160.618Z" fill="#0340C9"/>
<path id="Vector_45" d="M195.4 201.981H192.77C192.383 201.986 192 201.883 191.644 201.68C191.288 201.476 190.968 201.175 190.703 200.797C190.438 200.419 190.234 199.971 190.105 199.482C189.975 198.992 189.922 198.473 189.95 197.955L191.12 174.791C191.194 173.703 191.565 172.691 192.161 171.948C192.757 171.204 193.537 170.783 194.35 170.764H197C197.386 170.761 197.769 170.865 198.124 171.07C198.479 171.274 198.799 171.575 199.064 171.953C199.329 172.331 199.532 172.778 199.662 173.266C199.793 173.754 199.846 174.273 199.82 174.791L198.65 197.955C198.578 199.048 198.205 200.066 197.604 200.81C197.004 201.554 196.218 201.972 195.4 201.981Z" fill="#0340C9"/>
<path id="Vector_46" d="M296.65 437.782H192.28C190.579 437.808 188.893 437.358 187.329 436.461C185.765 435.565 184.357 434.242 183.195 432.576C182.032 430.909 181.141 428.937 180.577 426.783C180.013 424.63 179.789 422.343 179.92 420.067L196.8 84.5505C197.105 79.7571 198.728 75.2874 201.352 72.0106C203.977 68.7338 207.416 66.8843 211 66.8218H315.33C317.031 66.7963 318.718 67.2465 320.283 68.1436C321.848 69.0408 323.257 70.3653 324.419 72.0329C325.582 73.7006 326.473 75.6747 327.036 77.8298C327.599 79.9849 327.822 82.2737 327.69 84.5505L310.8 420.067C310.496 424.848 308.88 429.307 306.265 432.579C303.651 435.852 300.225 437.706 296.65 437.782Z" fill="#0340C9"/>
<path id="Vector_47" opacity="0.3" d="M181.02 416.309L197.5 88.8987H326.56L310.08 416.309H181.02Z" fill="white"/>
<path id="Vector_48" opacity="0.1" d="M231.97 416.309L278.03 88.8987H306.94L260.88 416.309H231.97Z" fill="white"/>
<path id="Vector_49" opacity="0.1" d="M210.13 416.309L256.19 88.8987H270.84L224.78 416.309H210.13Z" fill="white"/>
<path id="Vector_50" d="M250.14 75.0481H275.31C275.52 75.0433 275.729 75.0978 275.922 75.208C276.115 75.3182 276.289 75.4818 276.433 75.688C276.576 75.8943 276.685 76.1386 276.754 76.4052C276.822 76.6718 276.848 76.9548 276.83 77.2357C276.795 77.827 276.598 78.3799 276.276 78.7867C275.955 79.1935 275.532 79.4252 275.09 79.4367H249.92C249.71 79.4396 249.501 79.3834 249.307 79.2717C249.114 79.1599 248.94 78.9951 248.797 78.7879C248.654 78.5806 248.545 78.3354 248.476 78.0681C248.408 77.8008 248.382 77.5173 248.4 77.2357C248.435 76.6457 248.633 76.0944 248.954 75.6898C249.276 75.2851 249.699 75.0563 250.14 75.0481Z" fill="white"/>
<path id="Vector_51" d="M244.9 470.059L236.08 471.186L232.9 443.875L241.72 442.734L244.9 470.059Z" fill="#FFB573"/>
<path id="Vector_52" d="M235.07 465.402L244.31 461.55C244.469 461.476 244.644 461.487 244.797 461.582C244.95 461.677 245.069 461.849 245.13 462.06L248.13 471.897C248.205 472.161 248.238 472.442 248.227 472.724C248.217 473.006 248.163 473.281 248.069 473.533C247.975 473.786 247.843 474.009 247.681 474.189C247.52 474.37 247.332 474.503 247.13 474.581C243.79 475.923 240.61 476.232 236.58 478.608C231.87 481.292 229.9 484.888 224.83 484.888C221.2 484.888 220.38 480.419 221.92 479.802C228.92 476.957 228 474.622 233.08 467.28C233.608 466.43 234.295 465.781 235.07 465.402Z" fill="#263238"/>
<path id="Vector_53" opacity="0.2" d="M232.9 443.875L234.54 457.967L243.37 456.826L241.73 442.734L232.9 443.875Z" fill="black"/>
<path id="Vector_54" d="M239.28 98.7761C227.71 96.9509 216.2 98.1722 204.65 101.178C202.725 101.68 200.97 102.991 199.637 104.921C198.305 106.852 197.466 109.301 197.24 111.915C195.99 126.758 194.56 160.028 200.14 209.658L247.42 204.289C247.51 195.284 242.74 154.257 246.68 111.687C246.841 110.184 246.777 108.653 246.49 107.184C246.203 105.716 245.7 104.339 245.01 103.136C244.32 101.932 243.458 100.927 242.474 100.178C241.49 99.429 240.404 98.9524 239.28 98.7761Z" fill="white"/>
<path id="Vector_55" d="M211.75 111.499L213.44 116.035C213.519 116.264 213.644 116.458 213.801 116.596C213.959 116.734 214.142 116.809 214.33 116.814L216.16 116.948C216.486 116.967 216.808 116.834 217.07 116.572L220.22 113.418L216.33 109.62L211.75 111.499Z" fill="#263238"/>
<path id="Vector_56" d="M216.22 115.646C215.553 115.231 214.798 115.15 214.09 115.418C212.6 122.463 210.97 142.688 210.8 151.653C215.32 169.328 216.8 171.113 216.8 171.113L219.09 149.842C219.09 149.842 216.52 128.087 216.22 115.646Z" fill="#263238"/>
<path id="Vector_57" d="M229.27 68.1768C228.19 76.927 227.27 92.911 231.95 98.5611C228.52 103.393 224.03 108.989 216.33 109.62C208.63 110.251 209.82 103.097 211.77 99.2724C218.96 96.6957 218.61 89.5022 217.2 82.7784L229.27 68.1768Z" fill="#FFB573"/>
<path id="Vector_58" d="M233.91 97.7966C233.365 97.481 232.799 97.2339 232.22 97.0585C232.078 97.0082 231.928 97.0216 231.793 97.0968C231.657 97.1719 231.544 97.3046 231.47 97.4745C230.73 99.1655 228.47 106.721 216.33 109.62C218.33 111.204 220.98 116.116 222.12 118.478C225.76 115.941 235.23 108.359 234.33 98.5481C234.312 98.3861 234.264 98.2327 234.19 98.1015C234.117 97.9704 234.021 97.8656 233.91 97.7966Z" fill="#F5F5F5"/>
<path id="Vector_59" d="M211.84 99.6756C211.866 99.5229 211.862 99.364 211.831 99.2134C211.799 99.0628 211.739 98.9252 211.658 98.8132C211.576 98.7012 211.475 98.6183 211.364 98.572C211.253 98.5258 211.134 98.5176 211.02 98.5482C210.6 98.6577 210.185 98.8057 209.78 98.9911C209.686 99.0403 209.599 99.1081 209.52 99.1924C208.59 100.347 203.52 110.171 208.27 118.116C209.27 115.955 212.72 111.056 216.33 109.62C212.91 107.553 211.23 103.702 211.84 99.6756Z" fill="#F5F5F5"/>
<path id="Vector_60" opacity="0.2" d="M224.35 74.1357L217.21 82.7786C217.554 84.3397 217.795 85.9385 217.93 87.5564C220.69 86.9256 224.4 82.725 224.6 78.833C224.735 77.26 224.65 75.667 224.35 74.1357Z" fill="black"/>
<path id="Vector_61" d="M214.81 41.7248C208.65 44.9592 208.25 51.75 208.81 59.1717C209.37 66.5933 215.39 61.6813 216.73 57.0378C218.07 52.3942 223.34 37.2423 214.81 41.7248Z" fill="#263238"/>
<path id="Vector_62" d="M234.46 56.5278C232.75 68.2172 232.18 75.1557 227.2 80.5374C219.69 88.5898 209.52 81.6379 208.62 69.5861C207.81 58.7288 210.74 41.4028 219.71 38.0208C221.666 37.2478 223.739 37.1732 225.723 37.8044C227.707 38.4356 229.535 39.7506 231.024 41.6197C232.514 43.4887 233.614 45.847 234.217 48.4616C234.819 51.0762 234.903 53.8565 234.46 56.5278Z" fill="#FFB573"/>
<path id="Vector_63" d="M234.1 66.2039C226.77 66.7273 228.32 61.1444 229.65 57.9368C230.98 54.7293 228.27 49.4281 230.04 46.6769C226.88 48.3679 223.55 46.9721 219.32 43.0265C216.04 39.9531 211.93 52.233 207.93 46.073C204.15 40.2618 207.66 31.4981 216.74 30.089C225.82 28.6798 227.47 37.2959 233.43 36.5309C239.39 35.7659 237.32 42.3554 236.15 43.6975C241.15 44.1404 243.88 50.5555 234.1 66.2039Z" fill="#263238"/>
<path id="Vector_64" d="M235 44.5162C236.147 43.672 237.105 42.4319 237.775 40.9242C238.444 39.4164 238.802 37.6958 238.81 35.9404C240.79 40.5974 240.58 45.8851 235 44.5162Z" fill="#263238"/>
<path id="Vector_65" d="M216 69.0089C216.797 69.194 217.613 69.161 218.4 68.9119C219.187 68.6628 219.929 68.2028 220.58 67.5594C220.6 67.5344 220.615 67.5042 220.626 67.4707C220.637 67.4373 220.642 67.4013 220.642 67.3649C220.642 67.3284 220.637 67.2924 220.626 67.259C220.615 67.2255 220.6 67.1953 220.58 67.1703C220.541 67.1202 220.489 67.0923 220.435 67.0923C220.381 67.0923 220.329 67.1202 220.29 67.1703C219.561 67.864 218.721 68.3209 217.838 68.5049C216.955 68.6889 216.052 68.595 215.2 68.2305C215.146 68.2123 215.088 68.2214 215.039 68.256C214.989 68.2906 214.95 68.3483 214.93 68.4184C214.915 68.4896 214.92 68.5661 214.947 68.6314C214.973 68.6968 215.017 68.7456 215.07 68.7673C215.374 68.885 215.685 68.9658 216 69.0089Z" fill="#263238"/>
<path id="Vector_66" d="M236.23 69.7873C234.861 72.1555 232.853 73.7073 230.64 74.1088C227.73 74.6188 226.76 70.9818 227.98 67.5864C229.09 64.5264 231.98 60.5808 234.66 61.641C237.34 62.7012 237.91 66.8348 236.23 69.7873Z" fill="#FFB573"/>
<path id="Vector_67" d="M233.34 323.934C233.69 288.893 237.03 205.43 237.03 205.43L200.17 209.604C200.17 209.604 207.5 295.617 211.92 331.369C216.52 368.531 230.63 455.591 230.63 455.591L245.63 453.873C245.63 453.873 240.15 351.031 233.34 323.934Z" fill="#263238"/>
<path id="Vector_68" d="M229.73 456.141L247.52 454.115L246.82 446.411L228.28 448.075L229.73 456.141Z" fill="#0340C9"/>
<path id="Vector_69" d="M221.32 57.2258C221.23 58.1787 220.77 58.9034 220.32 58.8363C219.87 58.7692 219.56 57.9371 219.66 56.9708C219.76 56.0045 220.21 55.2932 220.66 55.3603C221.11 55.4274 221.42 56.2729 221.32 57.2258Z" fill="#263238"/>
<path id="Vector_70" d="M213.16 56.3669C213.07 57.3331 212.61 58.0444 212.16 57.9773C211.71 57.9102 211.4 57.0781 211.5 56.1253C211.6 55.1724 212.05 54.4477 212.5 54.5148C212.95 54.5819 213.26 55.3603 213.16 56.3669Z" fill="#263238"/>
<path id="Vector_71" d="M215.46 57.4939C214.255 59.9774 212.809 62.2341 211.16 64.2042C212.22 65.6939 214.41 65.2913 214.41 65.2913L215.46 57.4939Z" fill="#ED893E"/>
<path id="Vector_72" opacity="0.4" d="M208 56.6084C207.85 58.1384 209 59.4133 210.59 59.6817C212.18 59.9501 213.65 58.7825 213.79 57.2526" fill="#0340C9"/>
<path id="Vector_73" opacity="0.4" d="M217.45 58.031C217.23 59.5475 218.34 60.9165 219.9 61.3191C221.46 61.7217 222.99 60.648 223.2 59.1449" fill="#0340C9"/>
<path id="Vector_74" d="M220.52 61.7353C220.34 61.7486 220.16 61.7486 219.98 61.7353C219.211 61.6119 218.489 61.1764 217.91 60.4871C217.657 60.1972 217.46 59.8302 217.335 59.4169C217.21 59.0036 217.16 58.556 217.19 58.1117C216.683 57.8151 216.142 57.6337 215.59 57.5749C215.035 57.389 214.455 57.389 213.9 57.5749C213.76 59.2122 212.24 60.3395 210.54 60.0577C209.771 59.9449 209.048 59.5133 208.47 58.823C208.219 58.5317 208.022 58.1645 207.897 57.7515C207.772 57.3386 207.722 56.8917 207.75 56.4475L208.23 56.528C208.21 56.8712 208.251 57.2159 208.35 57.5334C208.449 57.8509 208.604 58.132 208.8 58.3533C209.304 58.9483 209.933 59.3188 210.6 59.4135C212.04 59.6685 213.32 58.7693 213.45 57.4272C213.52 56.6757 214.68 56.7293 215.64 56.8904C216.6 57.0514 217.74 57.4138 217.64 58.1519C217.619 58.4952 217.66 58.8403 217.759 59.1579C217.858 59.4756 218.013 59.7566 218.21 59.9771C218.72 60.5642 219.347 60.9381 220.013 61.0526C220.68 61.1671 221.356 61.0171 221.96 60.6213C222.193 60.4758 222.396 60.2572 222.553 59.9838C222.71 59.7105 222.815 59.3906 222.86 59.0511V58.729L235.2 60.8629L235.14 61.5071L223.26 59.4537C223.174 59.8273 223.032 60.1734 222.843 60.471C222.653 60.7686 222.421 61.0115 222.16 61.185C221.655 61.544 221.092 61.7328 220.52 61.7353Z" fill="#263238"/>
<path id="Vector_75" d="M224.46 53.0117C224.531 53.012 224.601 52.9839 224.66 52.9312C224.757 52.8553 224.829 52.7313 224.858 52.5858C224.888 52.4403 224.875 52.2848 224.82 52.1528C224.51 51.3722 224.061 50.7065 223.514 50.2148C222.966 49.7231 222.336 49.4207 221.68 49.3344C221.568 49.327 221.458 49.3791 221.373 49.4795C221.289 49.5799 221.238 49.7205 221.23 49.8713C221.225 50.0186 221.262 50.163 221.335 50.2734C221.408 50.3838 221.51 50.4514 221.62 50.4618C222.139 50.5435 222.635 50.7941 223.066 51.1917C223.496 51.5893 223.848 52.1219 224.09 52.7433C224.128 52.8287 224.182 52.8987 224.247 52.946C224.313 52.9933 224.386 53.016 224.46 53.0117Z" fill="#263238"/>
<path id="Vector_76" d="M210.52 51.4952C210.589 51.5043 210.659 51.4907 210.724 51.4557C210.788 51.4206 210.845 51.3651 210.89 51.2939C211.214 50.7256 211.632 50.2669 212.111 49.9546C212.59 49.6423 213.117 49.4851 213.65 49.4955C213.705 49.5029 213.761 49.4956 213.814 49.4739C213.867 49.4522 213.917 49.4166 213.959 49.3692C214.002 49.3218 214.037 49.2635 214.063 49.1976C214.089 49.1318 214.105 49.0597 214.11 48.9855C214.117 48.9132 214.113 48.8397 214.099 48.7694C214.085 48.699 214.06 48.6332 214.026 48.5757C213.993 48.5183 213.951 48.4704 213.904 48.4347C213.856 48.3991 213.804 48.3765 213.75 48.3682C213.078 48.3446 212.412 48.5326 211.804 48.9172C211.196 49.3017 210.664 49.8721 210.25 50.5826C210.179 50.6967 210.144 50.844 210.153 50.9923C210.163 51.1407 210.216 51.278 210.3 51.3744C210.365 51.4374 210.441 51.4788 210.52 51.4952Z" fill="#263238"/>
<path id="Vector_77" d="M264.05 318.284C256.4 265.514 254.68 224.246 247.42 204.209L211.71 209.577C211.71 209.577 232.98 288.209 243.37 321.774C254.16 356.667 275.46 416.282 275.46 416.282H293.3C293.3 416.282 276.65 342.321 264.05 318.284Z" fill="#263238"/>
<path id="Vector_78" d="M150.86 118.518L147 115.243C146.373 114.701 145.626 114.468 144.886 114.583C144.146 114.698 143.458 115.154 142.94 115.874L140.32 119.578C140.038 119.978 139.82 120.451 139.679 120.968C139.539 121.486 139.479 122.036 139.503 122.586C139.528 123.136 139.636 123.673 139.821 124.164C140.006 124.656 140.265 125.091 140.58 125.443L142.45 127.59C144.077 129.44 145.974 130.811 148.02 131.616L153.67 133.857L157.38 128.489C158.51 122.893 150.86 118.518 150.86 118.518Z" fill="#FFB573"/>
<path id="Vector_79" d="M208 116.008C206.6 120.598 205.23 124.866 203.74 129.228C202.25 133.589 200.74 137.898 199.07 142.179C197.4 146.46 195.62 150.714 193.6 154.982C192.6 157.102 191.49 159.223 190.23 161.357C188.876 163.71 187.333 165.856 185.63 167.758C184.506 168.992 183.265 170.021 181.94 170.818C181.52 171.033 181.13 171.248 180.67 171.436L179.97 171.691C179.618 171.807 179.261 171.892 178.9 171.946C177.681 172.13 176.447 172.012 175.26 171.597C173.776 171.039 172.366 170.174 171.08 169.033C170.117 168.227 169.198 167.33 168.33 166.349C165.444 162.968 162.784 159.254 160.38 155.25C158.05 151.493 155.85 147.721 153.74 143.87C151.63 140.018 149.6 136.233 147.52 132.194L158.58 122.611C162.07 130.173 165.932 137.414 170.14 144.286C172.074 147.469 174.205 150.427 176.51 153.13C176.957 153.62 177.428 154.069 177.92 154.472C178.29 154.808 178.66 154.942 178.4 154.821C178.049 154.691 177.68 154.664 177.32 154.74C177.175 154.758 177.031 154.794 176.89 154.848H176.81C176.76 154.848 176.76 154.848 176.75 154.848C176.978 154.648 177.195 154.429 177.4 154.19C178.313 153.078 179.14 151.846 179.87 150.513C180.72 148.983 181.57 147.265 182.38 145.48C184.036 141.769 185.545 137.943 186.9 134.019C188.3 129.993 189.65 125.967 190.9 121.779C192.15 117.592 193.34 113.338 194.35 109.271L208 116.008Z" fill="#0340C9"/>
<g id="Group" opacity="0.6">
<path id="Vector_80" d="M208 116.008C206.6 120.598 205.23 124.866 203.74 129.228C202.25 133.589 200.74 137.898 199.07 142.179C197.4 146.46 195.62 150.714 193.6 154.982C192.6 157.102 191.49 159.223 190.23 161.357C188.876 163.71 187.333 165.856 185.63 167.758C184.506 168.992 183.265 170.021 181.94 170.818C181.52 171.033 181.13 171.248 180.67 171.436L179.97 171.691C179.618 171.807 179.261 171.892 178.9 171.946C177.681 172.13 176.447 172.012 175.26 171.597C173.776 171.039 172.366 170.174 171.08 169.033C170.117 168.227 169.198 167.33 168.33 166.349C165.444 162.968 162.784 159.254 160.38 155.25C158.05 151.493 155.85 147.721 153.74 143.87C151.63 140.018 149.6 136.233 147.52 132.194L158.58 122.611C162.07 130.173 165.932 137.414 170.14 144.286C172.074 147.469 174.205 150.427 176.51 153.13C176.957 153.62 177.428 154.069 177.92 154.472C178.29 154.808 178.66 154.942 178.4 154.821C178.049 154.691 177.68 154.664 177.32 154.74C177.175 154.758 177.031 154.794 176.89 154.848H176.81C176.76 154.848 176.76 154.848 176.75 154.848C176.978 154.648 177.195 154.429 177.4 154.19C178.313 153.078 179.14 151.846 179.87 150.513C180.72 148.983 181.57 147.265 182.38 145.48C184.036 141.769 185.545 137.943 186.9 134.019C188.3 129.993 189.65 125.967 190.9 121.779C192.15 117.592 193.34 113.338 194.35 109.271L208 116.008Z" fill="white"/>
</g>
<path id="Vector_81" d="M234.18 95.4074C230.43 104.802 217.08 140.595 215.46 162.685C209.55 142.554 210.84 98.0244 210.84 98.0244C206.628 98.5754 202.496 99.9312 198.57 102.051C197.305 102.748 196.208 103.903 195.401 105.385C194.595 106.868 194.11 108.622 194 110.452C192.849 133.493 193.392 156.63 195.62 179.528C199.77 222.877 203.62 290.289 203.62 290.289C203.62 290.289 236.67 288.437 262.17 281.216C259.06 248.081 248.42 192.546 248.32 177.676C248.2 158.538 248.53 121.121 248.98 105.5C249.056 103.294 248.541 101.125 247.528 99.385C246.516 97.6447 245.073 96.448 243.46 96.0113C240.401 95.2505 237.28 95.0474 234.18 95.4074Z" fill="#0340C9"/>
<path id="Vector_82" opacity="0.7" d="M234.18 95.4075C230.43 104.802 217.08 140.595 215.46 162.685C209.55 142.554 210.84 98.0245 210.84 98.0245C206.628 98.5755 202.496 99.9312 198.57 102.051C197.305 102.748 196.208 103.903 195.401 105.386C194.595 106.868 194.11 108.622 194 110.452C192.849 133.493 193.392 156.63 195.62 179.528C199.77 222.877 203.62 290.289 203.62 290.289C203.62 290.289 236.67 288.437 262.17 281.216C259.06 248.081 248.42 192.546 248.32 177.676C248.2 158.538 248.53 121.108 248.98 105.486C249.075 103.348 248.604 101.233 247.651 99.5148C246.698 97.7963 245.324 96.5842 243.77 96.0919C240.613 95.2615 237.385 95.0311 234.18 95.4075Z" fill="white"/>
<path id="Vector_83" d="M226.39 283.095C220.65 240.592 216.1 178.226 215.73 170.724H216.24C216.61 178.226 221.17 240.512 226.9 283.015L226.39 283.095Z" fill="white"/>
<path id="Vector_84" d="M223.53 207.483H193.05C192.434 207.446 191.844 207.142 191.369 206.617C190.893 206.092 190.556 205.374 190.41 204.571L180.22 140.998C180.145 140.65 180.133 140.285 180.184 139.93C180.236 139.575 180.349 139.242 180.515 138.958C180.681 138.674 180.895 138.446 181.139 138.295C181.383 138.143 181.651 138.071 181.92 138.085H212.39C213.007 138.12 213.599 138.422 214.077 138.948C214.555 139.473 214.893 140.192 215.04 140.998L225.23 204.571C225.304 204.918 225.317 205.284 225.265 205.639C225.214 205.993 225.101 206.326 224.935 206.611C224.769 206.895 224.555 207.122 224.311 207.274C224.066 207.426 223.799 207.498 223.53 207.483Z" fill="white"/>
<path id="Vector_85" d="M222.58 208.02H191.58C190.953 207.981 190.353 207.671 189.868 207.136C189.383 206.602 189.04 205.872 188.89 205.054L178.52 140.407C178.446 140.053 178.435 139.68 178.488 139.319C178.542 138.958 178.658 138.619 178.828 138.33C178.997 138.041 179.216 137.809 179.464 137.655C179.713 137.5 179.986 137.427 180.26 137.441H211.26C211.887 137.48 212.487 137.79 212.972 138.324C213.457 138.859 213.8 139.589 213.95 140.407L224.31 205.054C224.386 205.407 224.399 205.78 224.347 206.141C224.295 206.502 224.179 206.842 224.01 207.131C223.842 207.421 223.624 207.653 223.375 207.807C223.126 207.962 222.854 208.035 222.58 208.02Z" fill="#0340C9"/>
<path id="Vector_86" d="M226.13 171.543L218.42 171.154C217.493 171.111 216.57 171.33 215.71 171.798L211.71 173.945C211.335 174.145 210.993 174.444 210.706 174.825C210.419 175.205 210.192 175.66 210.039 176.161C209.886 176.662 209.81 177.2 209.815 177.741C209.82 178.283 209.907 178.818 210.07 179.313L211.67 183.957C211.993 184.858 212.537 185.581 213.211 186.007C213.885 186.432 214.647 186.533 215.37 186.292L219.78 184.816C219.78 184.816 228.06 183.93 228.36 178.106L226.13 171.543Z" fill="#FFB573"/>
<path id="Vector_87" d="M247.42 101.165C249.33 105.191 251.08 108.868 252.8 112.814C254.52 116.76 256.21 120.665 257.8 124.745C259.39 128.825 260.9 133.039 262.27 137.548C262.982 139.91 263.589 142.325 264.09 144.782C264.735 147.776 265.032 150.886 264.97 154.002V154.525C264.974 154.615 264.974 154.704 264.97 154.794C264.97 155.277 264.87 155.76 264.8 156.243C264.73 156.726 264.64 157.102 264.54 157.585C264.44 158.068 264.33 158.323 264.22 158.699C263.838 159.86 263.347 160.952 262.76 161.947C261.943 163.317 261.014 164.56 259.99 165.651C258.417 167.314 256.745 168.8 254.99 170.093C251.903 172.359 248.725 174.393 245.47 176.186C242.32 177.985 239.18 179.622 236.02 181.165C232.86 182.709 229.75 184.198 226.46 185.675L222.65 168.765C225.65 167.664 228.71 166.309 231.7 164.94C234.69 163.571 237.7 162.041 240.54 160.444C243.327 158.899 246.045 157.138 248.68 155.17C249.792 154.342 250.852 153.395 251.85 152.338C252.112 152.071 252.348 151.76 252.55 151.412C252.464 151.542 252.396 151.692 252.35 151.855C252.35 151.975 252.3 152.056 252.25 152.204C252.211 152.361 252.181 152.523 252.16 152.687C252.118 152.893 252.091 153.104 252.08 153.317C252.08 153.398 252.08 153.411 252.08 153.385V153.291C252.01 152.017 251.826 150.76 251.53 149.546C251.13 147.789 250.656 146.064 250.11 144.379C248.888 140.665 247.505 137.048 245.97 133.549C244.41 129.952 242.75 126.355 240.97 122.812C239.19 119.269 237.37 115.74 235.54 112.519L247.42 101.165Z" fill="#0340C9"/>
<g id="Group_2" opacity="0.7">
<path id="Vector_88" d="M247.42 101.165C249.33 105.191 251.08 108.868 252.8 112.814C254.52 116.76 256.21 120.665 257.8 124.745C259.39 128.825 260.9 133.039 262.27 137.548C262.982 139.91 263.589 142.325 264.09 144.782C264.735 147.776 265.032 150.886 264.97 154.002V154.525C264.974 154.615 264.974 154.704 264.97 154.794C264.97 155.277 264.87 155.76 264.8 156.243C264.73 156.726 264.64 157.102 264.54 157.585C264.44 158.068 264.33 158.323 264.22 158.699C263.838 159.86 263.347 160.952 262.76 161.947C261.943 163.317 261.014 164.56 259.99 165.651C258.417 167.314 256.745 168.8 254.99 170.093C251.903 172.359 248.725 174.393 245.47 176.186C242.32 177.985 239.18 179.622 236.02 181.165C232.86 182.709 229.75 184.198 226.46 185.675L222.65 168.765C225.65 167.664 228.71 166.309 231.7 164.94C234.69 163.571 237.7 162.041 240.54 160.444C243.327 158.899 246.045 157.138 248.68 155.17C249.792 154.342 250.852 153.395 251.85 152.338C252.112 152.071 252.348 151.76 252.55 151.412C252.464 151.542 252.396 151.692 252.35 151.855C252.35 151.975 252.3 152.056 252.25 152.204C252.211 152.361 252.181 152.523 252.16 152.687C252.118 152.893 252.091 153.104 252.08 153.317C252.08 153.398 252.08 153.411 252.08 153.385V153.291C252.01 152.017 251.826 150.76 251.53 149.546C251.13 147.789 250.656 146.064 250.11 144.379C248.888 140.665 247.505 137.048 245.97 133.549C244.41 129.952 242.75 126.355 240.97 122.812C239.19 119.269 237.37 115.74 235.54 112.519L247.42 101.165Z" fill="white"/>
</g>
<path id="Vector_89" d="M237.3 147.735C237.233 147.734 237.168 147.71 237.11 147.665C237.053 147.62 237.004 147.557 236.97 147.48C236.941 147.421 236.921 147.355 236.911 147.286C236.901 147.217 236.902 147.145 236.913 147.076C236.924 147.007 236.946 146.942 236.976 146.885C237.006 146.827 237.045 146.778 237.09 146.742L238.65 145.4C240.106 144.167 241.249 142.37 241.928 140.247C242.606 138.124 242.788 135.774 242.45 133.509L239.31 112.17C239.08 110.574 238.456 109.13 237.539 108.069C236.621 107.009 235.464 106.395 234.254 106.326C233.044 106.258 231.853 106.74 230.872 107.693C229.891 108.646 229.179 110.016 228.85 111.579L224.4 132.502C223.914 134.714 223.941 137.072 224.477 139.263C225.012 141.453 226.032 143.374 227.4 144.769L228.88 146.272C228.963 146.359 229.018 146.487 229.031 146.628C229.044 146.769 229.015 146.911 228.95 147.023C228.919 147.078 228.88 147.124 228.835 147.159C228.79 147.193 228.741 147.216 228.69 147.224C228.639 147.233 228.587 147.228 228.537 147.21C228.487 147.191 228.441 147.16 228.4 147.117L227 145.628C225.496 144.108 224.372 142.01 223.778 139.613C223.183 137.216 223.145 134.633 223.67 132.207L228.13 111.284C228.513 109.498 229.332 107.935 230.456 106.848C231.579 105.761 232.943 105.213 234.327 105.29C235.711 105.367 237.035 106.066 238.088 107.275C239.14 108.484 239.859 110.132 240.13 111.955L243.27 133.308C243.641 135.782 243.442 138.35 242.701 140.67C241.96 142.99 240.711 144.953 239.12 146.299L237.55 147.641C237.515 147.678 237.475 147.706 237.432 147.722C237.389 147.738 237.344 147.743 237.3 147.735Z" fill="#263238"/>
<path id="Vector_90" d="M239.7 112.613L228.47 111.982C228.418 111.978 228.366 111.961 228.318 111.931C228.271 111.901 228.228 111.858 228.193 111.806C228.158 111.753 228.13 111.692 228.113 111.626C228.095 111.559 228.087 111.489 228.09 111.418C228.1 111.278 228.149 111.148 228.226 111.054C228.304 110.96 228.405 110.908 228.51 110.908L239.73 111.539C239.783 111.542 239.834 111.56 239.882 111.59C239.929 111.62 239.972 111.663 240.007 111.715C240.043 111.767 240.07 111.829 240.087 111.895C240.105 111.962 240.113 112.032 240.11 112.103C240.109 112.173 240.097 112.241 240.076 112.305C240.054 112.369 240.024 112.426 239.985 112.474C239.947 112.521 239.902 112.558 239.853 112.582C239.804 112.606 239.752 112.616 239.7 112.613Z" fill="#263238"/>
<path id="Vector_91" d="M234.24 106.359C234.136 106.355 234.037 106.3 233.963 106.203C233.889 106.105 233.845 105.974 233.84 105.835C233.84 103.151 233.22 98.4942 231.35 97.4742C231.298 97.4509 231.251 97.4136 231.21 97.3646C231.169 97.3157 231.137 97.2561 231.114 97.1895C231.091 97.1229 231.079 97.0508 231.077 96.9776C231.076 96.9043 231.086 96.8315 231.107 96.7636C231.127 96.6957 231.158 96.6342 231.197 96.5828C231.236 96.5314 231.282 96.4912 231.333 96.4647C231.384 96.4383 231.438 96.426 231.493 96.4289C231.547 96.4317 231.601 96.4494 231.65 96.4811C234.42 98.011 234.65 105.017 234.65 105.876C234.65 106.017 234.61 106.153 234.537 106.255C234.464 106.358 234.365 106.419 234.26 106.426L234.24 106.359Z" fill="#263238"/>
<path id="Vector_92" d="M199.89 124.597H199.81C199.707 124.568 199.616 124.486 199.558 124.368C199.5 124.249 199.479 124.105 199.5 123.967C200.82 115.149 206.28 101.232 211.09 97.1253C211.134 97.0887 211.183 97.0641 211.234 97.0531C211.285 97.042 211.337 97.0447 211.387 97.0609C211.437 97.0772 211.485 97.1066 211.526 97.1476C211.568 97.1886 211.603 97.2403 211.63 97.2998C211.659 97.3573 211.679 97.4222 211.689 97.4905C211.699 97.5588 211.698 97.629 211.687 97.6969C211.675 97.7648 211.654 97.8288 211.623 97.8852C211.593 97.9415 211.554 97.9889 211.51 98.0245C206.86 101.97 201.56 115.471 200.28 124.154C200.264 124.278 200.216 124.39 200.145 124.47C200.073 124.551 199.983 124.596 199.89 124.597Z" fill="#263238"/>
<path id="Vector_93" d="M203.17 125.98C202.55 128.113 201.17 129.402 200.17 128.852C199.17 128.301 198.78 126.167 199.4 123.98C200.02 121.792 201.4 120.558 202.4 121.121C203.4 121.685 203.8 123.846 203.17 125.98Z" fill="white"/>
<path id="Vector_94" d="M229.57 146.768C229.57 147.761 229.11 148.553 228.62 148.526C228.13 148.5 227.75 147.667 227.78 146.661C227.81 145.654 228.24 144.863 228.73 144.903C229.22 144.943 229.6 145.762 229.57 146.768Z" fill="white"/>
<path id="Vector_95" d="M238.19 147.251C238.19 148.245 237.74 149.036 237.24 149.01C236.74 148.983 236.38 148.151 236.41 147.144C236.44 146.137 236.86 145.359 237.41 145.386C237.96 145.413 238.22 146.285 238.19 147.251Z" fill="white"/>
</g>
<g id="Chat">
<path id="Vector_96" d="M407.77 128.637L406.77 128.556C406.936 125.699 406.658 122.827 405.954 120.121C405.249 117.416 404.133 114.936 402.677 112.84C401.22 110.744 399.455 109.077 397.493 107.945C395.531 106.813 393.415 106.241 391.28 106.265V104.923C393.552 104.897 395.804 105.505 397.892 106.709C399.98 107.912 401.859 109.685 403.409 111.915C404.96 114.145 406.148 116.783 406.899 119.661C407.649 122.54 407.946 125.596 407.77 128.637Z" fill="#0340C9"/>
<path id="Vector_97" d="M408.297 134.264L407.718 145.376L408.718 145.47L409.297 134.358L408.297 134.264Z" fill="#0340C9"/>
<path id="Vector_98" d="M391.28 109.62H322.28C318.512 109.703 314.902 111.664 312.151 115.122C309.401 118.58 307.707 123.288 307.4 128.328L306.77 140.796C306.627 143.195 306.858 145.608 307.448 147.881C308.038 150.153 308.974 152.236 310.197 153.996C311.42 155.756 312.903 157.155 314.551 158.104C316.2 159.052 317.977 159.529 319.77 159.505H388.77L402.15 170.577L404.27 128.328C404.415 125.93 404.185 123.518 403.596 121.245C403.007 118.972 402.072 116.889 400.85 115.129C399.627 113.369 398.145 111.97 396.497 111.021C394.85 110.073 393.073 109.595 391.28 109.62Z" fill="#0340C9"/>
<path id="Vector_99" d="M387.78 127.483H323.87V130.596H387.78V127.483Z" fill="white"/>
<path id="Vector_100" d="M387.22 138.528H339.77V141.642H387.22V138.528Z" fill="white"/>
<path id="Vector_101" d="M287.48 176.321H358C359.833 176.294 361.651 176.781 363.336 177.75C365.022 178.719 366.538 180.148 367.789 181.948C369.039 183.748 369.997 185.877 370.599 188.201C371.202 190.525 371.438 192.992 371.29 195.445L370.65 208.195C370.333 213.346 368.601 218.156 365.791 221.69C362.98 225.224 359.291 227.23 355.44 227.319H284.91L270.09 238.66L272.27 195.445C272.585 190.292 274.316 185.481 277.127 181.946C279.938 178.412 283.628 176.407 287.48 176.321Z" fill="white"/>
<path id="Vector_102" opacity="0.15" d="M287.48 176.321H358C359.833 176.294 361.651 176.781 363.336 177.75C365.022 178.719 366.538 180.148 367.789 181.948C369.039 183.748 369.997 185.877 370.599 188.201C371.202 190.525 371.438 192.992 371.29 195.445L370.65 208.195C370.333 213.346 368.601 218.156 365.791 221.69C362.98 225.224 359.291 227.23 355.44 227.319H284.91L270.09 238.66L272.27 195.445C272.585 190.292 274.316 185.481 277.127 181.946C279.938 178.412 283.628 176.407 287.48 176.321Z" fill="#0340C9"/>
<path id="Vector_103" opacity="0.5" d="M354.42 194.586H289.06V197.78H354.42V194.586Z" fill="#0340C9"/>
<path id="Vector_104" opacity="0.5" d="M314.32 205.873H288.49V209.067H314.32V205.873Z" fill="#0340C9"/>
<path id="Vector_105" opacity="0.5" d="M337.15 205.873H320.65V209.067H337.15V205.873Z" fill="#0340C9"/>
</g>
</g>
</svg>
